<?xml version="1.0" encoding="utf-8"?>
<!-- Generator: Adobe Illustrator 25.1.0, SVG Export Plug-In . SVG Version: 6.00 Build 0)  -->
<svg version="1.1" id="Layer_1" xmlns="http://www.w3.org/2000/svg" xmlns:xlink="http://www.w3.org/1999/xlink" x="0px" y="0px"
	 viewBox="0 0 30 30" style="enable-background:new 0 0 30 30;" xml:space="preserve">
<path d="M24.807,6.993c0,0.994-0.806,1.8-1.8,1.8c-0.994,0-1.8-0.806-1.8-1.8c0-0.994,0.806-1.8,1.8-1.8
	C24.001,5.193,24.807,5.999,24.807,6.993z M15,20c-2.761,0-5-2.239-5-5c0-2.761,2.239-5,5-5c2.761,0,5,2.239,5,5
	C20,17.761,17.761,20,15,20z M15,7.297c-4.254,0-7.703,3.449-7.703,7.703c0,4.254,3.449,7.703,7.703,7.703
	c4.254,0,7.703-3.449,7.703-7.703C22.703,10.746,19.254,7.297,15,7.297z M15,0c-4.074,0-4.585,0.017-6.184,0.09
	C7.219,0.163,6.129,0.417,5.174,0.788c-0.986,0.383-1.823,0.896-2.657,1.73c-0.834,0.834-1.347,1.67-1.73,2.657
	C0.417,6.129,0.163,7.219,0.09,8.816C0.017,10.415,0,10.926,0,15c0,4.074,0.017,4.585,0.09,6.184
	c0.073,1.597,0.326,2.687,0.697,3.641c0.383,0.986,0.896,1.823,1.73,2.657s1.67,1.347,2.657,1.73
	c0.954,0.371,2.045,0.624,3.641,0.697C10.415,29.983,10.926,30,15,30c4.074,0,4.585-0.017,6.184-0.09
	c1.597-0.073,2.687-0.326,3.641-0.697c0.986-0.383,1.823-0.896,2.657-1.73c0.834-0.834,1.347-1.67,1.73-2.657
	c0.371-0.954,0.624-2.045,0.697-3.641C29.983,19.585,30,19.074,30,15c0-4.074-0.017-4.585-0.09-6.184
	c-0.073-1.597-0.326-2.687-0.697-3.641c-0.383-0.986-0.896-1.823-1.73-2.657c-0.834-0.834-1.67-1.347-2.657-1.73
	c-0.954-0.371-2.045-0.624-3.641-0.697C19.585,0.017,19.074,0,15,0z M15,2.703c4.005,0,4.48,0.015,6.061,0.087
	c1.462,0.067,2.257,0.311,2.785,0.516c0.7,0.272,1.2,0.597,1.725,1.122c0.525,0.525,0.85,1.025,1.122,1.725
	c0.205,0.529,0.45,1.323,0.517,2.785c0.072,1.582,0.087,2.056,0.087,6.061s-0.015,4.48-0.087,6.061
	c-0.067,1.462-0.311,2.257-0.517,2.785c-0.272,0.7-0.597,1.2-1.122,1.725s-1.025,0.85-1.725,1.122
	c-0.529,0.205-1.323,0.45-2.785,0.517c-1.581,0.072-2.056,0.087-6.061,0.087c-4.005,0-4.48-0.015-6.061-0.087
	c-1.462-0.067-2.257-0.311-2.785-0.517c-0.7-0.272-1.2-0.597-1.725-1.122c-0.525-0.525-0.85-1.025-1.122-1.725
	c-0.205-0.529-0.45-1.323-0.517-2.785C2.718,19.48,2.703,19.005,2.703,15s0.015-4.48,0.087-6.061
	c0.067-1.462,0.311-2.257,0.517-2.785c0.272-0.7,0.597-1.2,1.122-1.725c0.525-0.525,1.025-0.85,1.725-1.122
	c0.529-0.205,1.323-0.45,2.785-0.516C10.52,2.718,10.995,2.703,15,2.703"/>
</svg>
