<?xml version="1.0" encoding="utf-8"?>
<!-- Generator: Adobe Illustrator 25.1.0, SVG Export Plug-In . SVG Version: 6.00 Build 0)  -->
<svg version="1.1" id="Layer_1" xmlns="http://www.w3.org/2000/svg" xmlns:xlink="http://www.w3.org/1999/xlink" x="0px" y="0px"
	 viewBox="0 0 30 30" style="enable-background:new 0 0 30 30;" xml:space="preserve">
<path d="M9.434,27.188c11.321,0,17.513-9.379,17.513-17.513c0-0.266,0-0.532-0.018-0.796C28.134,8.009,29.174,6.93,30,5.694
	c-1.123,0.498-2.315,0.824-3.535,0.968c1.285-0.769,2.247-1.979,2.706-3.404c-1.208,0.717-2.53,1.222-3.908,1.494
	c-1.908-2.029-4.94-2.525-7.395-1.211s-3.724,4.112-3.094,6.825C9.824,10.117,5.213,7.78,2.088,3.935
	c-1.634,2.812-0.799,6.41,1.906,8.216c-0.98-0.029-1.938-0.293-2.794-0.77c0,0.025,0,0.052,0,0.078
	c0.001,2.93,2.066,5.453,4.938,6.034c-0.906,0.247-1.857,0.283-2.779,0.106c0.806,2.507,3.117,4.225,5.75,4.274
	c-2.18,1.713-4.872,2.643-7.644,2.64C0.975,24.511,0.486,24.482,0,24.424c2.815,1.806,6.09,2.764,9.434,2.76"/>
</svg>
