<svg width="20" height="20" viewBox="0 0 20 20" fill="none" xmlns="http://www.w3.org/2000/svg">
<path d="M18.1249 17.2411L13.4049 12.5211C14.5391 11.1595 15.1047 9.41291 14.9841 7.64483C14.8634 5.87675 14.0657 4.22326 12.7569 3.02834C11.4482 1.83341 9.7291 1.18906 7.95736 1.22932C6.18562 1.26958 4.49761 1.99134 3.24448 3.24448C1.99134 4.49761 1.26958 6.18562 1.22932 7.95736C1.18906 9.7291 1.83341 11.4482 3.02834 12.7569C4.22326 14.0657 5.87675 14.8634 7.64483 14.9841C9.41291 15.1047 11.1595 14.5391 12.5211 13.4049L17.2411 18.1249L18.1249 17.2411ZM2.49989 8.12489C2.49989 7.01237 2.82979 5.92483 3.44787 4.99981C4.06596 4.07478 4.94446 3.35381 5.97229 2.92807C7.00013 2.50232 8.13113 2.39093 9.22227 2.60797C10.3134 2.82501 11.3157 3.36074 12.1024 4.14741C12.889 4.93408 13.4248 5.93636 13.6418 7.02751C13.8588 8.11865 13.7475 9.24965 13.3217 10.2775C12.896 11.3053 12.175 12.1838 11.25 12.8019C10.3249 13.42 9.23741 13.7499 8.12489 13.7499C6.63355 13.7482 5.20377 13.1551 4.14924 12.1005C3.09471 11.046 2.50154 9.61622 2.49989 8.12489Z" fill="#0D0D0D"/>
</svg>
