<svg width="30" height="31" viewBox="0 0 30 31" fill="none" xmlns="http://www.w3.org/2000/svg">
<g clip-path="url(#clip0_103_258)">
<path d="M30 15.845C30 7.56097 23.284 0.844971 15 0.844971C6.716 0.844971 0 7.56097 0 15.845C0 23.331 5.484 29.537 12.656 30.664V20.182H8.846V15.845H12.656V12.54C12.656 8.78097 14.896 6.70297 18.322 6.70297C19.963 6.70297 21.68 6.99597 21.68 6.99597V10.687H19.788C17.925 10.687 17.343 11.843 17.343 13.031V15.845H21.503L20.839 20.182H17.344V30.664C24.516 29.539 30 23.333 30 15.845Z" fill="black"/>
</g>
<defs>
<clipPath id="clip0_103_258">
<rect width="30" height="30" fill="white" transform="translate(0 0.753906)"/>
</clipPath>
</defs>
</svg>
