<svg width="30" height="31" viewBox="0 0 30 31" fill="none" xmlns="http://www.w3.org/2000/svg">
<g clip-path="url(#clip0_103_260)">
<path d="M24.807 7.74691C24.807 8.74091 24.001 9.54691 23.007 9.54691C22.013 9.54691 21.207 8.74091 21.207 7.74691C21.207 6.75291 22.013 5.94691 23.007 5.94691C24.001 5.94691 24.807 6.75291 24.807 7.74691ZM15 20.7539C12.239 20.7539 10 18.5149 10 15.7539C10 12.9929 12.239 10.7539 15 10.7539C17.761 10.7539 20 12.9929 20 15.7539C20 18.5149 17.761 20.7539 15 20.7539ZM15 8.05091C10.746 8.05091 7.297 11.4999 7.297 15.7539C7.297 20.0079 10.746 23.4569 15 23.4569C19.254 23.4569 22.703 20.0079 22.703 15.7539C22.703 11.4999 19.254 8.05091 15 8.05091ZM15 0.753906C10.926 0.753906 10.415 0.770906 8.816 0.843906C7.219 0.916906 6.129 1.17091 5.174 1.54191C4.188 1.92491 3.351 2.43791 2.517 3.27191C1.683 4.10591 1.17 4.94191 0.787 5.92891C0.417 6.88291 0.163 7.97291 0.09 9.56991C0.017 11.1689 0 11.6799 0 15.7539C0 19.8279 0.017 20.3389 0.09 21.9379C0.163 23.5349 0.416 24.6249 0.787 25.5789C1.17 26.5649 1.683 27.4019 2.517 28.2359C3.351 29.0699 4.187 29.5829 5.174 29.9659C6.128 30.3369 7.219 30.5899 8.815 30.6629C10.415 30.7369 10.926 30.7539 15 30.7539C19.074 30.7539 19.585 30.7369 21.184 30.6639C22.781 30.5909 23.871 30.3379 24.825 29.9669C25.811 29.5839 26.648 29.0709 27.482 28.2369C28.316 27.4029 28.829 26.5669 29.212 25.5799C29.583 24.6259 29.836 23.5349 29.909 21.9389C29.983 20.3389 30 19.8279 30 15.7539C30 11.6799 29.983 11.1689 29.91 9.56991C29.837 7.97291 29.584 6.88291 29.213 5.92891C28.83 4.94291 28.317 4.10591 27.483 3.27191C26.649 2.43791 25.813 1.92491 24.826 1.54191C23.872 1.17091 22.781 0.917906 21.185 0.844906C19.585 0.770906 19.074 0.753906 15 0.753906ZM15 3.45691C19.005 3.45691 19.48 3.47191 21.061 3.54391C22.523 3.61091 23.318 3.85491 23.846 4.05991C24.546 4.33191 25.046 4.65691 25.571 5.18191C26.096 5.70691 26.421 6.20691 26.693 6.90691C26.898 7.43591 27.143 8.22991 27.21 9.69191C27.282 11.2739 27.297 11.7479 27.297 15.7529C27.297 19.7579 27.282 20.2329 27.21 21.8139C27.143 23.2759 26.899 24.0709 26.693 24.5989C26.421 25.2989 26.096 25.7989 25.571 26.3239C25.046 26.8489 24.546 27.1739 23.846 27.4459C23.317 27.6509 22.523 27.8959 21.061 27.9629C19.48 28.0349 19.005 28.0499 15 28.0499C10.995 28.0499 10.52 28.0349 8.939 27.9629C7.477 27.8959 6.682 27.6519 6.154 27.4459C5.454 27.1739 4.954 26.8489 4.429 26.3239C3.904 25.7989 3.579 25.2989 3.307 24.5989C3.102 24.0699 2.857 23.2759 2.79 21.8139C2.718 20.2339 2.703 19.7589 2.703 15.7539C2.703 11.7489 2.718 11.2739 2.79 9.69291C2.857 8.23091 3.101 7.43591 3.307 6.90791C3.579 6.20791 3.904 5.70791 4.429 5.18291C4.954 4.65791 5.454 4.33291 6.154 4.06091C6.683 3.85591 7.477 3.61091 8.939 3.54491C10.52 3.47191 10.995 3.45691 15 3.45691Z" fill="black"/>
</g>
<defs>
<clipPath id="clip0_103_260">
<rect width="30" height="30" fill="white" transform="translate(0 0.753906)"/>
</clipPath>
</defs>
</svg>
